<svg width="30" height="32" viewBox="0 0 30 32" fill="none" xmlns="http://www.w3.org/2000/svg">
    <path d="M16.705 31.464C16.0831 31.816 15.3806 32.001 14.666 32.001C13.9514 32.001 13.249 31.816 12.627 31.464L2.07703 25.487C1.4471 25.1316 0.922804 24.6153 0.557718 23.9909C0.192633 23.3665 -0.000161897 22.6563 -0.000968933 21.933L-0.000968933 10.068C-0.000161897 9.34474 0.192633 8.63461 0.557718 8.01021C0.922804 7.3858 1.4471 6.8695 2.07703 6.51404L12.627 0.537041C13.249 0.185083 13.9514 0.000106812 14.666 0.000106812C15.3806 0.000106812 16.0831 0.185083 16.705 0.537041L27.254 6.51504C27.8838 6.87041 28.408 7.38656 28.7731 8.01077C29.1382 8.63499 29.331 9.34491 29.332 10.068L29.332 21.934C29.331 22.6572 29.1382 23.3671 28.7731 23.9913C28.408 24.6155 27.8838 25.1317 27.254 25.487L16.705 31.464Z"
          fill="url(#paint0_linear_3201_191781)"/>
    <path d="M15.132 28.68L25.677 22.701C25.8142 22.6247 25.9286 22.5132 26.0086 22.3781C26.0885 22.243 26.1311 22.089 26.132 21.932L26.132 5.87904L27.254 6.51504C27.8838 6.87041 28.408 7.38656 28.7731 8.01077C29.1382 8.63499 29.331 9.34491 29.332 10.068L29.332 21.934C29.331 22.6572 29.1382 23.3671 28.7731 23.9913C28.408 24.6155 27.8838 25.1317 27.254 25.487L16.705 31.464C16.0831 31.816 15.3806 32.001 14.666 32.001C13.9514 32.001 13.249 31.816 12.627 31.464L2.07703 25.487C1.4471 25.1316 0.922804 24.6153 0.557718 23.9909C0.192633 23.3665 -0.000161897 22.6563 -0.000968933 21.933L-0.000968933 10.068C-0.000161897 9.34474 0.192633 8.63461 0.557718 8.01021C0.922804 7.3858 1.4471 6.8695 2.07703 6.51404L3.19903 5.87804L3.19903 21.934C3.19994 22.091 3.24254 22.245 3.32249 22.3801C3.40244 22.5152 3.51686 22.6267 3.65403 22.703L14.203 28.68C14.344 28.7596 14.5031 28.8014 14.665 28.8014C14.8269 28.8014 14.9861 28.7596 15.127 28.68H15.132Z"
          fill="white" fill-opacity="0.4"/>
    <path d="M18.4992 8.35938V9.07038H15.9462V8.35938H13.3892V9.07038H10.8322V8.35938H8.69922V10.4904H9.41122V13.6784H8.69922V16.8654H9.41122V20.0534H8.69922V21.4744H12.3662V11.4684H16.9662V21.4754H20.6322V20.0534H19.9212V16.8654H20.6322V13.6784H19.9212V10.4904H20.6322V8.35938H18.4992Z"
          fill="white" fill-opacity="0.6"/>
    <defs>
        <linearGradient id="paint0_linear_3201_191781" x1="14.6655" y1="32.001" x2="14.6655" y2="0.000106812"
                        gradientUnits="userSpaceOnUse">
            <stop offset="0.099" stop-color="#5671FF"/>
            <stop offset="1" stop-color="#BBC1E2"/>
        </linearGradient>
    </defs>
</svg>
